<svg width="10" height="18" viewBox="0 0 10 18" fill="none" xmlns="http://www.w3.org/2000/svg">
<path d="M0.98901 0.499502C0.858166 0.633443 0.784912 0.813257 0.784912 1.0005C0.784912 1.18775 0.858166 1.36756 0.98901 1.5015L8.29851 9L0.98901 16.497C0.858166 16.6309 0.784912 16.8108 0.784912 16.998C0.784912 17.1852 0.858166 17.3651 0.98901 17.499C1.0526 17.5643 1.12864 17.6162 1.21263 17.6517C1.29661 17.6871 1.38685 17.7054 1.47801 17.7054C1.56917 17.7054 1.65941 17.6871 1.74339 17.6517C1.82738 17.6162 1.90342 17.5643 1.96701 17.499L9.74001 9.5235C9.87653 9.38344 9.95294 9.19559 9.95294 9C9.95294 8.80441 9.87653 8.61656 9.74001 8.4765L1.96701 0.501002C1.90342 0.435687 1.82738 0.383773 1.74339 0.348326C1.65941 0.312879 1.56917 0.294617 1.47801 0.294617C1.38685 0.294617 1.29661 0.312879 1.21263 0.348326C1.12864 0.383773 1.0526 0.435687 0.98901 0.501002V0.499502Z" fill="white"/>
</svg>
